<mxfile host="app.diagrams.net" modified="2022-12-09T15:06:56.249Z" agent="5.0 (Windows NT 10.0; Win64; x64) AppleWebKit/537.36 (KHTML, like Gecko) Chrome/108.0.0.0 Safari/537.36" etag="hxO56NYPk2Lzn6h4k_CZ" version="20.6.0" type="github">
  <diagram id="VKTRFyKmwZz97WrYO3hO" name="Page-1">
    <mxGraphModel dx="2725" dy="802" grid="1" gridSize="10" guides="1" tooltips="1" connect="1" arrows="1" fold="1" page="1" pageScale="1" pageWidth="1169" pageHeight="827" math="0" shadow="0">
      <root>
        <mxCell id="0" />
        <mxCell id="1" parent="0" />
        <mxCell id="v4iH7APgCb-KjCT9Qs5D-30" value="" style="ellipse;html=1;shape=startState;fillColor=#000000;strokeColor=#ff0000;" parent="1" vertex="1">
          <mxGeometry x="-1030" y="418.5" width="30" height="30" as="geometry" />
        </mxCell>
        <mxCell id="v4iH7APgCb-KjCT9Qs5D-31" value="" style="edgeStyle=orthogonalEdgeStyle;html=1;verticalAlign=bottom;endArrow=open;endSize=8;strokeColor=#ff0000;rounded=1;exitX=1;exitY=0.5;exitDx=0;exitDy=0;entryX=0;entryY=0.5;entryDx=0;entryDy=0;entryPerimeter=0;" parent="1" source="v4iH7APgCb-KjCT9Qs5D-30" target="v4iH7APgCb-KjCT9Qs5D-33" edge="1">
          <mxGeometry relative="1" as="geometry">
            <mxPoint x="-1015" y="508.5" as="targetPoint" />
          </mxGeometry>
        </mxCell>
        <mxCell id="v4iH7APgCb-KjCT9Qs5D-32" style="edgeStyle=orthogonalEdgeStyle;rounded=1;orthogonalLoop=1;jettySize=auto;html=1;exitX=1;exitY=0.5;exitDx=0;exitDy=0;exitPerimeter=0;entryX=0;entryY=0.5;entryDx=0;entryDy=0;startArrow=none;startFill=0;" parent="1" source="v4iH7APgCb-KjCT9Qs5D-33" target="v4iH7APgCb-KjCT9Qs5D-36" edge="1">
          <mxGeometry relative="1" as="geometry" />
        </mxCell>
        <mxCell id="v4iH7APgCb-KjCT9Qs5D-33" value="every 100 seconds" style="points=[[0.25,0,0],[0.5,0,0],[0.75,0,0],[1,0.25,0],[1,0.5,0],[1,0.75,0],[0.75,1,0],[0.5,1,0],[0.25,1,0],[0,0.75,0],[0,0.5,0],[0,0.25,0]];shape=mxgraph.bpmn.task;whiteSpace=wrap;rectStyle=rounded;size=10;taskMarker=abstract;isLoopStandard=1;" parent="1" vertex="1">
          <mxGeometry x="-900" y="410.5" width="120" height="45" as="geometry" />
        </mxCell>
        <mxCell id="v4iH7APgCb-KjCT9Qs5D-34" style="edgeStyle=orthogonalEdgeStyle;rounded=1;orthogonalLoop=1;jettySize=auto;html=1;exitX=1;exitY=0.5;exitDx=0;exitDy=0;entryX=0;entryY=0.5;entryDx=0;entryDy=0;startArrow=none;startFill=0;" parent="1" source="v4iH7APgCb-KjCT9Qs5D-36" target="v4iH7APgCb-KjCT9Qs5D-41" edge="1">
          <mxGeometry relative="1" as="geometry" />
        </mxCell>
        <mxCell id="v4iH7APgCb-KjCT9Qs5D-35" style="edgeStyle=orthogonalEdgeStyle;rounded=1;orthogonalLoop=1;jettySize=auto;html=1;startArrow=none;startFill=0;dashed=1;entryX=0.5;entryY=1;entryDx=0;entryDy=0;exitX=0.5;exitY=0;exitDx=0;exitDy=0;exitPerimeter=0;" parent="1" source="v4iH7APgCb-KjCT9Qs5D-56" target="v4iH7APgCb-KjCT9Qs5D-36" edge="1">
          <mxGeometry relative="1" as="geometry" />
        </mxCell>
        <mxCell id="v4iH7APgCb-KjCT9Qs5D-36" value="Extract ContactImportState&lt;br&gt;&lt;b&gt;criteria&lt;/b&gt;: status (=Created), createdAt&lt;br&gt;&lt;b&gt;limit&lt;/b&gt;: 10" style="rounded=1;whiteSpace=wrap;html=1;" parent="1" vertex="1">
          <mxGeometry x="-750" y="410" width="220" height="45" as="geometry" />
        </mxCell>
        <mxCell id="v4iH7APgCb-KjCT9Qs5D-37" style="edgeStyle=orthogonalEdgeStyle;rounded=1;orthogonalLoop=1;jettySize=auto;html=1;exitX=0.5;exitY=1;exitDx=0;exitDy=0;entryX=0.5;entryY=0;entryDx=0;entryDy=0;labelBackgroundColor=none;fontSize=18;fontColor=#FF2D0D;startArrow=none;startFill=0;" parent="1" source="v4iH7APgCb-KjCT9Qs5D-38" target="v4iH7APgCb-KjCT9Qs5D-48" edge="1">
          <mxGeometry relative="1" as="geometry" />
        </mxCell>
        <mxCell id="v4iH7APgCb-KjCT9Qs5D-38" value="Extract ContactImportState&lt;br&gt;&lt;b&gt;criteria&lt;/b&gt;: status (=Processing), createdAt&lt;br&gt;&lt;b&gt;limit&lt;/b&gt;: 10" style="rounded=1;whiteSpace=wrap;html=1;" parent="1" vertex="1">
          <mxGeometry x="-305" y="402.5" width="170" height="60" as="geometry" />
        </mxCell>
        <mxCell id="v4iH7APgCb-KjCT9Qs5D-39" style="edgeStyle=orthogonalEdgeStyle;rounded=1;orthogonalLoop=1;jettySize=auto;html=1;exitX=0.5;exitY=1;exitDx=0;exitDy=0;startArrow=none;startFill=0;dashed=1;entryX=0.75;entryY=0;entryDx=0;entryDy=0;entryPerimeter=0;" parent="1" source="v4iH7APgCb-KjCT9Qs5D-41" target="v4iH7APgCb-KjCT9Qs5D-56" edge="1">
          <mxGeometry relative="1" as="geometry" />
        </mxCell>
        <mxCell id="v4iH7APgCb-KjCT9Qs5D-40" style="edgeStyle=orthogonalEdgeStyle;rounded=1;orthogonalLoop=1;jettySize=auto;html=1;exitX=1;exitY=0.5;exitDx=0;exitDy=0;entryX=0;entryY=0.5;entryDx=0;entryDy=0;startArrow=none;startFill=0;" parent="1" source="v4iH7APgCb-KjCT9Qs5D-41" target="v4iH7APgCb-KjCT9Qs5D-38" edge="1">
          <mxGeometry relative="1" as="geometry" />
        </mxCell>
        <mxCell id="v4iH7APgCb-KjCT9Qs5D-85" style="edgeStyle=orthogonalEdgeStyle;rounded=0;orthogonalLoop=1;jettySize=auto;html=1;exitX=0.25;exitY=0;exitDx=0;exitDy=0;entryX=1;entryY=0.5;entryDx=0;entryDy=0;entryPerimeter=0;dashed=1;" parent="1" source="v4iH7APgCb-KjCT9Qs5D-41" target="v4iH7APgCb-KjCT9Qs5D-84" edge="1">
          <mxGeometry relative="1" as="geometry" />
        </mxCell>
        <mxCell id="v4iH7APgCb-KjCT9Qs5D-41" value="Download &quot;.csv&quot; files&lt;br&gt;and update Status&lt;br&gt;&lt;b&gt;status&lt;/b&gt;: Processing" style="rounded=1;whiteSpace=wrap;html=1;" parent="1" vertex="1">
          <mxGeometry x="-490" y="410" width="140" height="45" as="geometry" />
        </mxCell>
        <mxCell id="v4iH7APgCb-KjCT9Qs5D-46" value="Update Status&lt;br&gt;&lt;b&gt;status&lt;/b&gt;: Scheduled" style="rounded=1;whiteSpace=wrap;html=1;" parent="1" vertex="1">
          <mxGeometry x="-480" y="596" width="120" height="45" as="geometry" />
        </mxCell>
        <mxCell id="v4iH7APgCb-KjCT9Qs5D-47" style="edgeStyle=orthogonalEdgeStyle;rounded=1;orthogonalLoop=1;jettySize=auto;html=1;exitX=0;exitY=0.5;exitDx=0;exitDy=0;entryX=1;entryY=0.5;entryDx=0;entryDy=0;labelBackgroundColor=none;fontSize=12;fontColor=#FF2D0D;startArrow=none;startFill=0;" parent="1" source="v4iH7APgCb-KjCT9Qs5D-48" target="v4iH7APgCb-KjCT9Qs5D-51" edge="1">
          <mxGeometry relative="1" as="geometry" />
        </mxCell>
        <mxCell id="v4iH7APgCb-KjCT9Qs5D-48" value="For each parse unvalidated contacts" style="rounded=1;whiteSpace=wrap;html=1;labelBackgroundColor=none;fontSize=12;" parent="1" vertex="1">
          <mxGeometry x="-280" y="513" width="120" height="40" as="geometry" />
        </mxCell>
        <mxCell id="v4iH7APgCb-KjCT9Qs5D-49" style="edgeStyle=orthogonalEdgeStyle;rounded=1;orthogonalLoop=1;jettySize=auto;html=1;exitX=0;exitY=0.5;exitDx=0;exitDy=0;labelBackgroundColor=none;fontSize=12;fontColor=#FF2D0D;startArrow=none;startFill=0;dashed=1;entryX=1;entryY=0.5;entryDx=0;entryDy=0;entryPerimeter=0;" parent="1" source="v4iH7APgCb-KjCT9Qs5D-51" target="v4iH7APgCb-KjCT9Qs5D-56" edge="1">
          <mxGeometry relative="1" as="geometry">
            <mxPoint x="-616" y="533.0999999999999" as="targetPoint" />
          </mxGeometry>
        </mxCell>
        <mxCell id="v4iH7APgCb-KjCT9Qs5D-50" style="edgeStyle=orthogonalEdgeStyle;rounded=1;orthogonalLoop=1;jettySize=auto;html=1;exitX=0.5;exitY=1;exitDx=0;exitDy=0;labelBackgroundColor=none;fontSize=12;fontColor=#FF2D0D;startArrow=none;startFill=0;" parent="1" source="v4iH7APgCb-KjCT9Qs5D-51" target="v4iH7APgCb-KjCT9Qs5D-46" edge="1">
          <mxGeometry relative="1" as="geometry" />
        </mxCell>
        <mxCell id="v4iH7APgCb-KjCT9Qs5D-51" value="Save unvalidated contacts" style="rounded=1;whiteSpace=wrap;html=1;labelBackgroundColor=none;fontSize=12;" parent="1" vertex="1">
          <mxGeometry x="-490" y="515.25" width="140" height="35.5" as="geometry" />
        </mxCell>
        <mxCell id="v4iH7APgCb-KjCT9Qs5D-52" style="edgeStyle=orthogonalEdgeStyle;rounded=1;orthogonalLoop=1;jettySize=auto;html=1;exitX=0;exitY=0.5;exitDx=0;exitDy=0;entryX=0.5;entryY=1;entryDx=0;entryDy=0;entryPerimeter=0;labelBackgroundColor=none;fontSize=12;fontColor=#FF2908;startArrow=none;startFill=0;" parent="1" source="v4iH7APgCb-KjCT9Qs5D-46" target="v4iH7APgCb-KjCT9Qs5D-33" edge="1">
          <mxGeometry relative="1" as="geometry">
            <mxPoint x="-697.5" y="618.5" as="sourcePoint" />
          </mxGeometry>
        </mxCell>
        <mxCell id="v4iH7APgCb-KjCT9Qs5D-53" style="edgeStyle=orthogonalEdgeStyle;rounded=1;orthogonalLoop=1;jettySize=auto;html=1;exitX=0;exitY=0.5;exitDx=0;exitDy=0;labelBackgroundColor=none;fontSize=12;fontColor=#FF2908;startArrow=none;startFill=0;dashed=1;entryX=0.5;entryY=1;entryDx=0;entryDy=0;entryPerimeter=0;" parent="1" source="v4iH7APgCb-KjCT9Qs5D-46" target="v4iH7APgCb-KjCT9Qs5D-56" edge="1">
          <mxGeometry relative="1" as="geometry">
            <mxPoint x="-640" y="596" as="sourcePoint" />
          </mxGeometry>
        </mxCell>
        <mxCell id="v4iH7APgCb-KjCT9Qs5D-56" value="Database" style="sketch=0;points=[[0,0,0],[0.25,0,0],[0.5,0,0],[0.75,0,0],[1,0,0],[0,1,0],[0.25,1,0],[0.5,1,0],[0.75,1,0],[1,1,0],[0,0.25,0],[0,0.5,0],[0,0.75,0],[1,0.25,0],[1,0.5,0],[1,0.75,0]];outlineConnect=0;fontColor=#232F3E;gradientColor=#4D72F3;gradientDirection=north;fillColor=#3334B9;strokeColor=#ffffff;dashed=0;verticalLabelPosition=middle;verticalAlign=middle;align=right;html=1;fontSize=11;fontStyle=1;aspect=fixed;shape=mxgraph.aws4.resourceIcon;resIcon=mxgraph.aws4.rds;labelBackgroundColor=none;labelBorderColor=none;fontFamily=Helvetica;labelPosition=left;spacing=5;" parent="1" vertex="1">
          <mxGeometry x="-664" y="509" width="48" height="48" as="geometry" />
        </mxCell>
        <mxCell id="v4iH7APgCb-KjCT9Qs5D-84" value="S3" style="outlineConnect=0;dashed=0;verticalLabelPosition=bottom;verticalAlign=top;align=center;html=1;shape=mxgraph.aws3.s3;fillColor=#E05243;gradientColor=none;" parent="1" vertex="1">
          <mxGeometry x="-540" y="340" width="50" height="47.5" as="geometry" />
        </mxCell>
        <mxCell id="v4iH7APgCb-KjCT9Qs5D-86" value="" style="ellipse;html=1;shape=startState;fillColor=#000000;strokeColor=#ff0000;" parent="1" vertex="1">
          <mxGeometry x="-1056" y="863.5" width="30" height="30" as="geometry" />
        </mxCell>
        <mxCell id="v4iH7APgCb-KjCT9Qs5D-87" value="" style="edgeStyle=orthogonalEdgeStyle;html=1;verticalAlign=bottom;endArrow=open;endSize=8;strokeColor=#ff0000;rounded=1;exitX=1;exitY=0.5;exitDx=0;exitDy=0;entryX=0;entryY=0.5;entryDx=0;entryDy=0;entryPerimeter=0;" parent="1" source="v4iH7APgCb-KjCT9Qs5D-86" target="v4iH7APgCb-KjCT9Qs5D-89" edge="1">
          <mxGeometry relative="1" as="geometry">
            <mxPoint x="-1041" y="953.5" as="targetPoint" />
          </mxGeometry>
        </mxCell>
        <mxCell id="v4iH7APgCb-KjCT9Qs5D-88" style="edgeStyle=orthogonalEdgeStyle;rounded=1;orthogonalLoop=1;jettySize=auto;html=1;exitX=1;exitY=0.5;exitDx=0;exitDy=0;exitPerimeter=0;entryX=0;entryY=0.5;entryDx=0;entryDy=0;startArrow=none;startFill=0;" parent="1" source="v4iH7APgCb-KjCT9Qs5D-89" target="v4iH7APgCb-KjCT9Qs5D-92" edge="1">
          <mxGeometry relative="1" as="geometry" />
        </mxCell>
        <mxCell id="v4iH7APgCb-KjCT9Qs5D-89" value="every 200 seconds" style="points=[[0.25,0,0],[0.5,0,0],[0.75,0,0],[1,0.25,0],[1,0.5,0],[1,0.75,0],[0.75,1,0],[0.5,1,0],[0.25,1,0],[0,0.75,0],[0,0.5,0],[0,0.25,0]];shape=mxgraph.bpmn.task;whiteSpace=wrap;rectStyle=rounded;size=10;taskMarker=abstract;isLoopStandard=1;" parent="1" vertex="1">
          <mxGeometry x="-926" y="855.5" width="120" height="45" as="geometry" />
        </mxCell>
        <mxCell id="v4iH7APgCb-KjCT9Qs5D-90" style="edgeStyle=orthogonalEdgeStyle;rounded=1;orthogonalLoop=1;jettySize=auto;html=1;exitX=1;exitY=0.5;exitDx=0;exitDy=0;entryX=0;entryY=0.5;entryDx=0;entryDy=0;startArrow=none;startFill=0;" parent="1" source="v4iH7APgCb-KjCT9Qs5D-92" target="v4iH7APgCb-KjCT9Qs5D-98" edge="1">
          <mxGeometry relative="1" as="geometry" />
        </mxCell>
        <mxCell id="v4iH7APgCb-KjCT9Qs5D-91" style="edgeStyle=orthogonalEdgeStyle;rounded=1;orthogonalLoop=1;jettySize=auto;html=1;startArrow=none;startFill=0;dashed=1;entryX=0.5;entryY=1;entryDx=0;entryDy=0;exitX=0.5;exitY=0;exitDx=0;exitDy=0;exitPerimeter=0;" parent="1" source="v4iH7APgCb-KjCT9Qs5D-107" target="v4iH7APgCb-KjCT9Qs5D-92" edge="1">
          <mxGeometry relative="1" as="geometry" />
        </mxCell>
        <mxCell id="v4iH7APgCb-KjCT9Qs5D-92" value="Extract UnvalidatedContact&lt;br&gt;&lt;b&gt;criteria&lt;/b&gt;: status (=Created), createdAt&lt;br&gt;&lt;b&gt;orgLimit&lt;/b&gt;: 400&lt;br&gt;&lt;b&gt;limit&lt;/b&gt;: 2000" style="rounded=1;whiteSpace=wrap;html=1;" parent="1" vertex="1">
          <mxGeometry x="-776" y="850" width="220" height="55" as="geometry" />
        </mxCell>
        <mxCell id="v4iH7APgCb-KjCT9Qs5D-96" style="edgeStyle=orthogonalEdgeStyle;rounded=1;orthogonalLoop=1;jettySize=auto;html=1;exitX=1;exitY=0.5;exitDx=0;exitDy=0;entryX=0.5;entryY=0;entryDx=0;entryDy=0;startArrow=none;startFill=0;" parent="1" source="v4iH7APgCb-KjCT9Qs5D-98" target="v4iH7APgCb-KjCT9Qs5D-109" edge="1">
          <mxGeometry relative="1" as="geometry">
            <mxPoint x="-331" y="877.5" as="targetPoint" />
            <Array as="points">
              <mxPoint x="-276" y="878" />
            </Array>
          </mxGeometry>
        </mxCell>
        <mxCell id="v4iH7APgCb-KjCT9Qs5D-98" value="Validate and convert to Contact" style="rounded=1;whiteSpace=wrap;html=1;" parent="1" vertex="1">
          <mxGeometry x="-516" y="855" width="140" height="45" as="geometry" />
        </mxCell>
        <mxCell id="v4iH7APgCb-KjCT9Qs5D-118" style="edgeStyle=orthogonalEdgeStyle;rounded=0;orthogonalLoop=1;jettySize=auto;html=1;exitX=0.5;exitY=1;exitDx=0;exitDy=0;" parent="1" source="v4iH7APgCb-KjCT9Qs5D-99" target="v4iH7APgCb-KjCT9Qs5D-117" edge="1">
          <mxGeometry relative="1" as="geometry" />
        </mxCell>
        <mxCell id="v4iH7APgCb-KjCT9Qs5D-99" value="Update Status and failReason&lt;br&gt;&lt;b&gt;status&lt;/b&gt;: Invalid" style="rounded=1;whiteSpace=wrap;html=1;" parent="1" vertex="1">
          <mxGeometry x="-506" y="1035" width="120" height="45" as="geometry" />
        </mxCell>
        <mxCell id="v4iH7APgCb-KjCT9Qs5D-103" style="edgeStyle=orthogonalEdgeStyle;rounded=1;orthogonalLoop=1;jettySize=auto;html=1;exitX=0;exitY=0.5;exitDx=0;exitDy=0;labelBackgroundColor=none;fontSize=12;fontColor=#FF2D0D;startArrow=none;startFill=0;dashed=1;" parent="1" source="v4iH7APgCb-KjCT9Qs5D-109" target="v4iH7APgCb-KjCT9Qs5D-99" edge="1">
          <mxGeometry relative="1" as="geometry">
            <mxPoint x="-446" y="995.75" as="sourcePoint" />
          </mxGeometry>
        </mxCell>
        <mxCell id="v4iH7APgCb-KjCT9Qs5D-111" value="No" style="edgeLabel;html=1;align=center;verticalAlign=middle;resizable=0;points=[];" parent="v4iH7APgCb-KjCT9Qs5D-103" vertex="1" connectable="0">
          <mxGeometry x="-0.2832" y="-1" relative="1" as="geometry">
            <mxPoint as="offset" />
          </mxGeometry>
        </mxCell>
        <mxCell id="v4iH7APgCb-KjCT9Qs5D-107" value="Database" style="sketch=0;points=[[0,0,0],[0.25,0,0],[0.5,0,0],[0.75,0,0],[1,0,0],[0,1,0],[0.25,1,0],[0.5,1,0],[0.75,1,0],[1,1,0],[0,0.25,0],[0,0.5,0],[0,0.75,0],[1,0.25,0],[1,0.5,0],[1,0.75,0]];outlineConnect=0;fontColor=#232F3E;gradientColor=#4D72F3;gradientDirection=north;fillColor=#3334B9;strokeColor=#ffffff;dashed=0;verticalLabelPosition=middle;verticalAlign=middle;align=right;html=1;fontSize=11;fontStyle=1;aspect=fixed;shape=mxgraph.aws4.resourceIcon;resIcon=mxgraph.aws4.rds;labelBackgroundColor=none;labelBorderColor=none;fontFamily=Helvetica;labelPosition=left;spacing=5;" parent="1" vertex="1">
          <mxGeometry x="-690" y="954" width="48" height="48" as="geometry" />
        </mxCell>
        <mxCell id="v4iH7APgCb-KjCT9Qs5D-114" style="edgeStyle=orthogonalEdgeStyle;rounded=0;orthogonalLoop=1;jettySize=auto;html=1;exitX=1;exitY=0.5;exitDx=0;exitDy=0;dashed=1;" parent="1" source="v4iH7APgCb-KjCT9Qs5D-109" target="v4iH7APgCb-KjCT9Qs5D-110" edge="1">
          <mxGeometry relative="1" as="geometry" />
        </mxCell>
        <mxCell id="v4iH7APgCb-KjCT9Qs5D-115" value="Yes" style="edgeLabel;html=1;align=center;verticalAlign=middle;resizable=0;points=[];" parent="v4iH7APgCb-KjCT9Qs5D-114" vertex="1" connectable="0">
          <mxGeometry x="-0.3993" y="3" relative="1" as="geometry">
            <mxPoint as="offset" />
          </mxGeometry>
        </mxCell>
        <mxCell id="v4iH7APgCb-KjCT9Qs5D-109" value="isValid?" style="rhombus;whiteSpace=wrap;html=1;" parent="1" vertex="1">
          <mxGeometry x="-316" y="905" width="80" height="80" as="geometry" />
        </mxCell>
        <mxCell id="v4iH7APgCb-KjCT9Qs5D-119" style="edgeStyle=orthogonalEdgeStyle;rounded=0;orthogonalLoop=1;jettySize=auto;html=1;exitX=0.5;exitY=1;exitDx=0;exitDy=0;entryX=0.5;entryY=0;entryDx=0;entryDy=0;" parent="1" source="v4iH7APgCb-KjCT9Qs5D-110" target="v4iH7APgCb-KjCT9Qs5D-117" edge="1">
          <mxGeometry relative="1" as="geometry" />
        </mxCell>
        <mxCell id="v4iH7APgCb-KjCT9Qs5D-110" value="Update Status&lt;br&gt;&lt;b&gt;status&lt;/b&gt;: Active" style="rounded=1;whiteSpace=wrap;html=1;" parent="1" vertex="1">
          <mxGeometry x="-186" y="1035" width="120" height="45" as="geometry" />
        </mxCell>
        <mxCell id="v4iH7APgCb-KjCT9Qs5D-122" style="edgeStyle=orthogonalEdgeStyle;rounded=0;orthogonalLoop=1;jettySize=auto;html=1;exitX=0.5;exitY=1;exitDx=0;exitDy=0;entryX=0.5;entryY=0;entryDx=0;entryDy=0;dashed=1;" parent="1" source="v4iH7APgCb-KjCT9Qs5D-117" target="v4iH7APgCb-KjCT9Qs5D-120" edge="1">
          <mxGeometry relative="1" as="geometry" />
        </mxCell>
        <mxCell id="v4iH7APgCb-KjCT9Qs5D-117" value="Start processing&lt;br&gt;ContactImportState&lt;br&gt;Status = InProgress" style="rounded=1;whiteSpace=wrap;html=1;" parent="1" vertex="1">
          <mxGeometry x="-336" y="1155" width="120" height="45" as="geometry" />
        </mxCell>
        <mxCell id="v4iH7APgCb-KjCT9Qs5D-123" style="edgeStyle=orthogonalEdgeStyle;rounded=0;orthogonalLoop=1;jettySize=auto;html=1;exitX=0.5;exitY=1;exitDx=0;exitDy=0;entryX=0.5;entryY=0;entryDx=0;entryDy=0;dashed=1;" parent="1" source="v4iH7APgCb-KjCT9Qs5D-120" target="v4iH7APgCb-KjCT9Qs5D-121" edge="1">
          <mxGeometry relative="1" as="geometry" />
        </mxCell>
        <mxCell id="v4iH7APgCb-KjCT9Qs5D-125" style="edgeStyle=orthogonalEdgeStyle;rounded=0;orthogonalLoop=1;jettySize=auto;html=1;exitX=0;exitY=0.5;exitDx=0;exitDy=0;entryX=0.5;entryY=1;entryDx=0;entryDy=0;entryPerimeter=0;dashed=1;" parent="1" source="v4iH7APgCb-KjCT9Qs5D-120" target="v4iH7APgCb-KjCT9Qs5D-107" edge="1">
          <mxGeometry relative="1" as="geometry" />
        </mxCell>
        <mxCell id="v4iH7APgCb-KjCT9Qs5D-120" value="Save contacts&lt;br&gt;&lt;b&gt;batch-size&lt;/b&gt;: 500" style="rounded=1;whiteSpace=wrap;html=1;" parent="1" vertex="1">
          <mxGeometry x="-346" y="1235" width="140" height="45" as="geometry" />
        </mxCell>
        <mxCell id="v4iH7APgCb-KjCT9Qs5D-126" style="edgeStyle=orthogonalEdgeStyle;rounded=0;orthogonalLoop=1;jettySize=auto;html=1;exitX=0;exitY=0.5;exitDx=0;exitDy=0;entryX=0.5;entryY=1;entryDx=0;entryDy=0;entryPerimeter=0;dashed=1;" parent="1" source="v4iH7APgCb-KjCT9Qs5D-121" target="v4iH7APgCb-KjCT9Qs5D-107" edge="1">
          <mxGeometry relative="1" as="geometry" />
        </mxCell>
        <mxCell id="v4iH7APgCb-KjCT9Qs5D-132" style="edgeStyle=orthogonalEdgeStyle;rounded=0;orthogonalLoop=1;jettySize=auto;html=1;exitX=0.5;exitY=1;exitDx=0;exitDy=0;entryX=0.5;entryY=0;entryDx=0;entryDy=0;dashed=1;" parent="1" source="v4iH7APgCb-KjCT9Qs5D-121" target="v4iH7APgCb-KjCT9Qs5D-130" edge="1">
          <mxGeometry relative="1" as="geometry" />
        </mxCell>
        <mxCell id="v4iH7APgCb-KjCT9Qs5D-121" value="Update existing&lt;br&gt;&lt;b&gt;criteria&lt;/b&gt;: phoneNumber" style="rounded=1;whiteSpace=wrap;html=1;" parent="1" vertex="1">
          <mxGeometry x="-346" y="1315" width="140" height="45" as="geometry" />
        </mxCell>
        <mxCell id="v4iH7APgCb-KjCT9Qs5D-129" style="edgeStyle=orthogonalEdgeStyle;rounded=0;orthogonalLoop=1;jettySize=auto;html=1;exitX=0;exitY=0.5;exitDx=0;exitDy=0;entryX=0.5;entryY=1;entryDx=0;entryDy=0;entryPerimeter=0;" parent="1" source="v4iH7APgCb-KjCT9Qs5D-127" target="v4iH7APgCb-KjCT9Qs5D-107" edge="1">
          <mxGeometry relative="1" as="geometry">
            <Array as="points">
              <mxPoint x="-666" y="1498" />
            </Array>
          </mxGeometry>
        </mxCell>
        <mxCell id="v4iH7APgCb-KjCT9Qs5D-135" style="edgeStyle=orthogonalEdgeStyle;rounded=0;orthogonalLoop=1;jettySize=auto;html=1;exitX=0;exitY=0.5;exitDx=0;exitDy=0;entryX=0.5;entryY=1;entryDx=0;entryDy=0;entryPerimeter=0;" parent="1" source="v4iH7APgCb-KjCT9Qs5D-127" target="v4iH7APgCb-KjCT9Qs5D-89" edge="1">
          <mxGeometry relative="1" as="geometry">
            <Array as="points">
              <mxPoint x="-866" y="1498" />
            </Array>
          </mxGeometry>
        </mxCell>
        <mxCell id="v4iH7APgCb-KjCT9Qs5D-127" value="Finish processing&lt;br&gt;ContactImportState&lt;br&gt;Status = Completed" style="rounded=1;whiteSpace=wrap;html=1;" parent="1" vertex="1">
          <mxGeometry x="-336" y="1475" width="120" height="45" as="geometry" />
        </mxCell>
        <mxCell id="v4iH7APgCb-KjCT9Qs5D-133" style="edgeStyle=orthogonalEdgeStyle;rounded=0;orthogonalLoop=1;jettySize=auto;html=1;exitX=0.5;exitY=1;exitDx=0;exitDy=0;" parent="1" source="v4iH7APgCb-KjCT9Qs5D-130" target="v4iH7APgCb-KjCT9Qs5D-127" edge="1">
          <mxGeometry relative="1" as="geometry" />
        </mxCell>
        <mxCell id="v4iH7APgCb-KjCT9Qs5D-134" style="edgeStyle=orthogonalEdgeStyle;rounded=0;orthogonalLoop=1;jettySize=auto;html=1;exitX=0;exitY=0.5;exitDx=0;exitDy=0;entryX=0.5;entryY=1;entryDx=0;entryDy=0;entryPerimeter=0;dashed=1;" parent="1" source="v4iH7APgCb-KjCT9Qs5D-130" target="v4iH7APgCb-KjCT9Qs5D-107" edge="1">
          <mxGeometry relative="1" as="geometry" />
        </mxCell>
        <mxCell id="v4iH7APgCb-KjCT9Qs5D-130" value="Add to contact lists" style="rounded=1;whiteSpace=wrap;html=1;" parent="1" vertex="1">
          <mxGeometry x="-336" y="1395" width="120" height="45" as="geometry" />
        </mxCell>
        <mxCell id="v4iH7APgCb-KjCT9Qs5D-136" value="&lt;h1&gt;Parse Contacts Job&lt;/h1&gt;" style="text;html=1;align=center;verticalAlign=middle;resizable=0;points=[];autosize=1;strokeColor=none;fillColor=none;" parent="1" vertex="1">
          <mxGeometry x="-1100" y="462.5" width="250" height="70" as="geometry" />
        </mxCell>
        <mxCell id="v4iH7APgCb-KjCT9Qs5D-137" value="&lt;h1&gt;Save Contacts Job&lt;/h1&gt;" style="text;html=1;align=center;verticalAlign=middle;resizable=0;points=[];autosize=1;strokeColor=none;fillColor=none;" parent="1" vertex="1">
          <mxGeometry x="-1120" y="915" width="240" height="70" as="geometry" />
        </mxCell>
      </root>
    </mxGraphModel>
  </diagram>
</mxfile>
